<svg width="140" height="40" viewBox="0 0 140 40" fill="none" xmlns="http://www.w3.org/2000/svg">
<g clip-path="url(#clip0_1_1053)">
<path d="M93.6169 7.80009e-05C93.7872 0.0033977 93.9557 0.0762964 94.0363 0.222511C94.3534 0.797869 94.1659 1.37247 93.9201 1.96904C93.7909 2.28269 93.6483 2.59056 93.5057 2.89835C93.1446 3.678 92.7837 4.45713 92.6415 5.3284C92.4264 6.64608 92.3499 7.93349 92.7203 9.23719C92.9119 9.91408 92.9672 10.6162 93.022 11.3125C93.0642 11.8495 93.1062 12.3833 93.2103 12.8992C93.5502 14.5865 93.8352 16.2967 94.1168 17.9866C94.146 18.162 94.1752 18.3372 94.2045 18.5121C94.4554 20.0114 94.6251 21.7202 93.9392 23.2637C93.5735 24.0901 93.4445 24.8677 93.9941 25.6872C94.1734 25.9549 94.2379 26.3646 94.1973 26.6905C94.0945 27.5333 94.1662 28.2829 94.7852 28.9604C95.0744 29.277 95.1461 29.7496 94.974 30.1756C94.5892 31.1348 94.8019 31.9799 95.3779 32.804C95.7276 33.3041 95.7516 33.8804 95.7754 34.4549C95.7822 34.6185 95.789 34.782 95.8033 34.9435C95.8344 35.2973 95.8391 35.8072 95.3516 35.6186C95.2242 35.5691 95.048 35.5799 94.8686 35.591C94.4656 35.6158 94.0462 35.6416 94.1256 34.9877C94.2308 34.1054 94.0013 33.4908 93.1888 33.0857C93.0908 33.0368 92.9617 32.925 92.9545 32.8343C92.9169 32.2823 92.6728 31.773 92.4289 31.2641C92.0536 30.481 91.6788 29.699 92.0583 28.7648C92.2758 28.2294 92.1468 27.7894 91.7739 27.375C91.6449 27.2306 91.5445 27.0607 91.4465 26.8931C90.7678 25.7454 90.101 20.2488 90.4858 18.9777C91.1335 16.8266 91.1335 16.8266 89.8095 14.8035C89.4498 15.5275 89.5341 16.2377 89.6151 16.9201L89.6159 16.9267C89.7449 18.0372 89.451 18.987 88.6934 19.8228C88.6696 19.8492 88.6448 19.8762 88.6194 19.9038C88.4257 20.1148 88.2023 20.3582 88.1939 20.5887C88.1533 21.6483 87.8536 22.6541 87.5541 23.6593C87.2719 24.6066 86.9898 25.5533 86.9249 26.5439C86.918 26.6436 86.9157 26.7449 86.9133 26.8463C86.9076 27.0973 86.9018 27.3486 86.8269 27.5775C86.5998 28.262 85.89 28.3807 85.4623 27.7964C85.2424 27.4937 85.1205 27.1003 85.0369 26.7301C85.0119 26.6187 84.9913 26.5063 84.971 26.3948C84.8568 25.7702 84.7479 25.1739 83.8921 24.9329C83.4715 24.8141 83.4046 24.2298 83.4524 23.8061C83.5942 22.5042 83.1991 21.3085 82.8039 20.1125C82.5065 19.2125 82.2091 18.3123 82.1403 17.3667C82.116 17.0256 81.8568 16.8233 81.5928 16.6173C81.4425 16.5 81.2906 16.3814 81.1796 16.2353C80.3622 15.1621 80.0372 14.0236 80.2427 12.6897C79.607 13.6325 79.098 14.6848 79.337 15.7068C79.7425 17.4402 79.412 19.0843 79.0816 20.728C78.9349 21.4574 78.7883 22.1867 78.706 22.9238C78.6961 23.0113 78.674 23.0991 78.6521 23.1866C78.6163 23.3294 78.5807 23.471 78.5985 23.6082C78.7586 24.8956 78.5388 26.0131 77.5374 26.9955C77.0021 27.5217 76.9566 28.3411 77.1741 29.0908C77.5494 30.3752 77.1424 31.5282 76.7355 32.6807C76.5518 33.2013 76.368 33.7219 76.2564 34.2544C76.1919 34.5663 75.9457 34.9435 75.4916 34.8224C75.1379 34.7293 75.0232 34.3684 75.0591 34.0704C75.1543 33.2725 75.0734 32.4768 74.9924 31.681C74.8905 30.6797 74.7886 29.6783 75.0376 28.6717C75.2001 28.0105 74.9754 27.3727 74.7269 26.7511C74.2178 25.4753 74.2011 24.1809 75.1571 23.1379C76.4237 21.7551 76.4357 20.1627 76.1513 18.5447C75.9147 17.1968 76.0604 15.9699 76.505 14.6825C76.8402 13.7097 77.0942 12.7101 77.3482 11.71L77.3483 11.7097L77.3484 11.7094L77.3485 11.7091L77.3486 11.7088L77.3487 11.7082C77.5238 11.0192 77.6989 10.33 77.9007 9.64925C78.4479 7.7938 78.4814 7.80079 80.0754 8.881C80.7135 8.14816 81.0833 7.27963 81.4534 6.41035C81.7722 5.66141 82.0913 4.91191 82.5824 4.24819C82.6274 4.18737 82.6696 4.11947 82.7124 4.05069C82.8971 3.75353 83.0922 3.43974 83.5599 3.60798C84.1457 3.81797 84.0191 4.27149 83.9053 4.67973C83.8942 4.71954 83.8832 4.75892 83.873 4.79761C83.7906 5.10734 83.6901 5.41264 83.5896 5.71777L83.5895 5.71802L83.5894 5.71828C83.4596 6.11244 83.3299 6.50641 83.2397 6.90915C83.2088 7.046 83.172 7.184 83.135 7.32243L83.1349 7.32282C82.9255 8.1074 82.7123 8.90576 83.5695 9.5864C83.7224 9.70978 83.8084 10.0194 83.7846 10.2289C83.6282 11.6867 84.039 13.0222 84.4573 14.3823C84.5187 14.5818 84.5802 14.7818 84.6401 14.9828C84.8663 15.7436 84.8443 16.5734 84.8223 17.404V17.4051C84.812 17.7941 84.8017 18.1834 84.817 18.5657C84.8433 19.2105 84.8767 19.8577 85.4168 20.4514C85.4496 20.1536 85.4837 19.8558 85.5177 19.5579C85.5979 18.8568 85.6781 18.1554 85.7419 17.4529C85.8853 15.8512 86.2031 14.3356 87.3503 13.0622C87.9756 12.3699 88.1492 11.4585 88.3188 10.5684C88.3391 10.4618 88.3593 10.3555 88.3803 10.2499C88.691 8.67613 89.0949 7.1629 90.2683 5.93835C90.5479 5.64502 90.7821 5.19105 90.8013 4.79761C90.8784 3.16903 91.8159 2.00422 92.7552 0.837275C92.9386 0.609414 93.122 0.381472 93.2992 0.14998C93.3739 0.0523506 93.4919 -0.00235767 93.6169 7.80009e-05Z" fill="#FDFDFD"/>
<path d="M140 17.9693C139.999 18.2258 139.894 18.4744 139.699 18.6472C138.743 19.4954 137.679 20.2094 136.619 20.9196L136.619 20.9197C135.747 21.5047 134.878 22.0871 134.077 22.7399C133.432 23.2667 132.754 23.7533 132.08 24.2372L132.079 24.2373C131.19 24.8759 130.307 25.5098 129.513 26.225C128.944 26.7379 128.345 27.2141 127.749 27.6881L127.749 27.6884C127.039 28.2533 126.332 28.8154 125.684 29.433C124.96 30.12 124.409 30.9734 123.856 31.8301L123.856 31.8303C123.479 32.4134 123.102 32.9981 122.668 33.5327C122.605 33.6111 122.541 33.6897 122.478 33.7684L122.47 33.7776C121.077 35.5029 119.667 37.2479 117.214 37.6836C116.173 37.8688 115.447 38.52 114.72 39.1712C114.455 39.4092 114.19 39.6471 113.909 39.8624C113.79 39.954 113.641 40 113.489 40C113.197 40 112.912 39.8283 112.894 39.5443C112.861 39.0431 113.144 38.6275 113.532 38.2679C113.658 38.1505 113.783 38.0278 113.909 37.9045C114.354 37.4684 114.807 37.0248 115.345 36.778C116.732 36.1434 117.716 35.0834 118.699 34.025C119.429 33.239 120.158 32.454 121.05 31.8449C121.282 31.6866 121.507 31.4188 121.335 31.1511C120.679 30.1358 121.3 29.6723 121.914 29.2151C122.074 29.0958 122.233 28.9769 122.369 28.8487C122.46 28.7636 122.564 28.6968 122.666 28.6313C122.963 28.4405 123.242 28.2612 123.113 27.6753C123.022 27.2706 123.643 27.1028 124.116 26.9749L124.117 26.9748C124.182 26.9571 124.245 26.9401 124.303 26.9234C125.333 26.6254 126.2 26.3134 125.983 24.9469C125.932 24.6218 126.076 24.2694 126.222 23.9151C126.293 23.7417 126.364 23.5678 126.413 23.3964C126.623 22.6514 126.774 22.0764 126.212 21.222C125.778 20.563 125.649 19.6876 125.52 18.8201C125.469 18.4739 125.417 18.1291 125.347 17.7998C124.996 16.1538 124.766 14.3706 125.058 12.7409C125.256 11.6235 125.388 10.5339 125.416 9.41648C125.417 9.41094 125.417 9.40538 125.417 9.39979L125.417 9.38684C125.417 9.37047 125.417 9.35392 125.417 9.33725C125.417 9.13024 125.417 8.90687 125.677 8.83679C126.023 8.74367 126.203 9.03002 126.303 9.25817C126.387 9.44591 126.471 9.63339 126.556 9.82101C126.919 10.6222 127.283 11.4257 127.539 12.2613C127.605 12.4775 127.664 12.6955 127.723 12.9129L127.723 12.9132L127.723 12.9135C127.974 13.8411 128.223 14.7567 129.008 15.4601C129.321 15.7398 129.293 16.1413 129.267 16.5184C129.265 16.5434 129.263 16.5682 129.262 16.5928L129.26 16.617L129.26 16.6297L129.259 16.6468C129.258 16.6564 129.257 16.6659 129.257 16.6753C129.181 18.2072 129.341 19.6738 130.34 20.9496C130.529 21.1906 130.518 21.4772 130.507 21.7738C130.505 21.844 130.502 21.9148 130.502 21.9856C132.942 21.1917 135.253 20.2163 137.275 18.6239C137.949 18.0942 138.754 17.6182 139.703 17.6516C139.875 17.6576 140.001 17.8016 140 17.9693Z" fill="#FDFDFD"/>
<path d="M40.4751 16.4099C40.1357 16.6474 39.727 16.8615 39.2371 16.808C39.0632 16.3875 39.2001 15.9934 39.336 15.6024C39.4558 15.2574 39.5748 14.9149 39.4785 14.5591C39.1296 13.2251 39.0961 11.9168 39.4044 10.5642C39.5311 10.0124 39.6243 9.2046 38.7042 9.10217C37.6478 8.98344 36.8018 9.61667 36.895 10.5316C37.1078 12.5855 36.5623 14.497 36.0165 16.4097C35.8205 17.0965 35.6245 17.7834 35.4635 18.4772C35.4254 18.6428 35.3507 18.8161 35.2752 18.9912C35.062 19.4859 34.8427 19.9947 35.4252 20.3815C35.8762 20.6789 36.1031 20.3896 36.3478 20.0774C36.5208 19.8569 36.7026 19.625 36.9787 19.5807C36.8841 19.9543 36.8399 20.3348 36.796 20.7134C36.7156 21.4059 36.636 22.0919 36.2497 22.7166C36.1159 22.9331 36.0848 23.1636 36.2712 23.3591C36.5896 23.696 36.5234 24.0518 36.4539 24.4251C36.4389 24.5059 36.4237 24.5874 36.4123 24.6698C36.2704 25.6679 36.005 26.6365 35.7399 27.6041C35.6476 27.941 35.5553 28.2779 35.4682 28.6158C35.2914 29.3096 35.4754 29.9777 36.1374 30.1523C36.6324 30.2815 36.8241 29.7846 36.9924 29.3482C37.0183 29.2811 37.0437 29.2154 37.0695 29.1536C37.5188 28.0757 37.9251 26.9862 38.0613 25.8245C38.1736 24.863 38.5177 24.0925 39.4546 23.8177C40.5437 24.6359 41.0025 25.7868 41.4647 26.9461C41.7561 27.677 42.0489 28.4112 42.5017 29.0675C43.4218 30.4014 44.1913 32.0078 44.4901 33.7143C44.6167 34.429 44.9537 34.5221 45.6253 33.968C46.4808 33.2626 46.4808 32.5642 46.1726 31.6539C46.1078 31.4622 46.04 31.2698 45.972 31.0767L45.9718 31.0761C45.6633 30.2005 45.3503 29.312 45.2955 28.4156C45.2459 27.6211 44.9293 26.931 44.6148 26.2455C44.3524 25.6736 44.0914 25.1049 43.9882 24.4812C43.9404 24.1949 43.7277 23.9551 43.4529 23.9016C42.1318 23.6414 41.5567 22.6904 40.9819 21.7399C40.7799 21.4059 40.5779 21.0719 40.3436 20.768C40.0449 20.3815 39.9278 19.7832 40.3771 19.6622C41.8888 19.2557 42.6674 18.2099 43.4775 17.1217C43.6881 16.8388 43.9009 16.553 44.1292 16.2749C44.508 15.814 44.9995 15.4014 45.5008 14.9806C45.9894 14.5705 46.4873 14.1525 46.8991 13.6745C47.0091 13.5472 47.1751 13.4292 47.3418 13.3106C47.7364 13.03 48.1355 12.7461 47.8096 12.3288C47.4455 11.8648 46.755 12.2375 46.1934 12.5407L46.1927 12.5411C46.1206 12.58 46.0506 12.6177 45.9837 12.6524C45.74 12.7782 45.5153 12.9551 45.3194 13.1437C44.423 14.0007 43.3642 14.6292 42.3053 15.2579C41.6844 15.6265 41.0634 15.9951 40.4751 16.4099Z" fill="#FDFDFD"/>
<path d="M118.07 22.2068C117.838 25.9479 117.159 29.4051 116.373 32.8459C116.362 32.8945 116.352 32.946 116.342 32.9986C116.275 33.3396 116.2 33.7276 115.742 33.6631C115.322 33.6025 115.188 33.1183 115.176 32.7318C115.173 32.6176 115.168 32.5027 115.164 32.3874C115.142 31.802 115.12 31.2068 115.247 30.6506C115.608 29.0916 115.442 27.553 115.276 26.0116C115.247 25.7461 115.218 25.4804 115.192 25.2146C115.141 24.6775 115.313 24.186 115.485 23.6958C115.568 23.4592 115.651 23.2229 115.709 22.982C115.835 22.4465 115.697 22.3581 115.281 22.1928C115.126 22.1319 114.976 22.0622 114.825 21.9927C114.407 21.7991 113.992 21.6067 113.496 21.6084C113.104 21.6084 112.97 21.2988 112.956 20.9659C112.941 20.64 113.142 20.4491 113.46 20.4374C115.659 20.3696 115.879 18.7873 116.094 17.2454L116.095 17.2392C116.101 17.1963 116.107 17.1534 116.113 17.1107C116.395 15.0946 117.054 13.2135 118.001 11.4093C118.316 10.8086 118.82 10.4478 119.437 10.7365C120.132 11.0624 119.783 11.691 119.518 12.138C119.026 12.9714 118.887 13.6442 119.184 14.7151C119.442 15.6504 119.071 16.6459 118.7 17.6368C118.551 18.0371 118.402 18.4366 118.295 18.8311C118.251 18.9935 118.183 19.1495 118.115 19.306C118.074 19.3984 118.034 19.4911 117.998 19.5854C117.883 19.888 117.915 20.172 118.316 20.1371C119.478 20.0414 120.502 20.4391 121.526 20.8369C121.897 20.9808 122.267 21.1247 122.644 21.2453L122.652 21.2477C123.137 21.4013 123.866 21.6323 123.576 22.1788C123.524 22.2758 123.474 22.394 123.42 22.5198L123.42 22.5202C123.178 23.086 122.87 23.806 122.092 23.4499C121.591 23.2214 121.049 23.1585 120.501 23.0948C119.664 22.9976 118.814 22.8988 118.07 22.2068Z" fill="#FDFDFD"/>
<path d="M32.9286 15.396C32.3056 15.4157 31.7042 15.4348 31.2191 15.041C30.2417 15.1923 29.4434 15.3879 29.1232 16.2073C28.9081 16.7637 28.5138 16.9896 28.0047 17.1246C27.2065 17.3341 26.9221 17.8765 26.7333 18.6262C26.6745 18.8599 26.6211 19.0958 26.5676 19.332C26.3256 20.401 26.0825 21.4747 25.3328 22.3766C25.046 22.7235 24.7569 23.3055 25.1966 23.6361C25.634 23.9644 25.5742 24.1902 25.4213 24.5836C25.1703 25.2332 25.3615 25.6359 26.1549 25.6406C26.1898 25.6408 26.2265 25.6404 26.2642 25.64C26.5971 25.6362 27.0136 25.6315 26.9771 26.0643C26.9338 26.5734 27.1714 26.9685 27.4115 27.3677C27.6226 27.7188 27.8356 28.0731 27.8613 28.511C27.8996 29.1559 28.4994 29.2421 28.9153 28.6088C29.0652 28.3834 29.1851 28.1397 29.3048 27.8964C29.3396 27.8256 29.3744 27.7549 29.41 27.6846C29.7302 27.0537 30.0696 26.6812 30.9514 26.5438C31.3567 26.4802 31.7594 26.3476 32.169 26.2127C32.6435 26.0565 33.1273 25.8972 33.6353 25.8385C34.1515 25.7803 34.412 25.317 34.5984 24.8863C34.7227 24.5999 34.7299 24.2647 34.498 24.0063C34.2232 23.7013 33.9173 23.848 33.6425 24.0179C33.2457 24.2624 32.8132 24.4137 32.4165 24.1297C31.2836 23.3172 30.1723 23.4988 29.0467 24.1087C28.8603 24.2088 28.6643 24.281 28.4875 24.1669C28.2389 24.0063 28.2987 23.7502 28.4014 23.5383C28.5687 23.1891 28.7647 22.8539 28.9655 22.521C29.2164 22.1066 29.4936 21.6037 29.0658 21.2522C28.3265 20.6448 28.7222 20.2658 29.149 19.8572C29.1802 19.8273 29.2116 19.7972 29.2427 19.7669C29.4569 19.5583 29.717 19.3816 29.9758 19.2058C30.4591 18.8776 30.9379 18.5525 31.1044 18.0279C31.3673 17.1944 31.8477 17.1711 32.5073 17.1968C33.1693 17.2247 33.7835 17.092 34.2256 16.5682C34.639 16.0746 34.6414 15.5392 33.9364 15.4274C33.604 15.3746 33.2632 15.3854 32.9286 15.396Z" fill="#FDFDFD"/>
<path d="M21.4819 25.0522C21.3909 23.9583 21.3001 22.8675 21.1267 21.8086C21.0327 21.2331 21.0665 20.6801 21.0985 20.1564C21.1292 19.6547 21.1583 19.1799 21.0717 18.7379C20.9356 18.0423 20.9519 17.3895 20.9681 16.7382C20.976 16.4174 20.984 16.097 20.9737 15.772C20.9458 14.8929 21.5336 14.8608 22.0752 14.8312C22.2751 14.8203 22.4688 14.8097 22.6228 14.757C23.1008 14.5925 23.1632 14.9809 23.2272 15.3787C23.2439 15.4821 23.2606 15.5861 23.2848 15.6812C23.5453 16.7218 23.5261 17.6996 23.2059 18.724C23.0482 19.2245 23.0792 19.7972 23.6409 20.1813C24.2885 20.626 24.2981 21.2056 23.8703 21.7946C23.4688 22.351 23.3732 22.8958 23.7149 23.5151C23.8201 23.7083 23.9014 23.9946 23.8344 24.1855C23.3541 25.5847 23.0649 27.0048 23.0721 28.4878C23.0745 28.7788 22.8952 29.0977 22.4842 29.1024C22.0898 29.107 21.8986 28.8021 21.8269 28.525C21.7478 28.2134 21.728 27.8868 21.7081 27.5598C21.6998 27.4226 21.6915 27.2853 21.6788 27.1491C21.5985 26.454 21.5402 25.7525 21.4819 25.0522Z" fill="#FDFDFD"/>
<path d="M20.902 9.16738C21.0024 10.1079 20.8733 10.9623 20.4121 11.7957C20.663 12.6944 21.2652 13.2647 22.0993 13.423C22.9692 13.593 23.3325 12.9132 23.2871 12.2078C23.2714 11.9542 23.3602 11.6753 23.4498 11.3941C23.6602 10.7333 23.8746 10.0603 22.7446 9.67489C22.7004 9.6594 22.7007 9.51279 22.7009 9.37721C22.701 9.32949 22.701 9.28298 22.6992 9.2442C22.6777 8.76462 22.4841 8.39214 21.944 8.40145C21.4325 8.41076 20.8542 8.72738 20.902 9.16738Z" fill="#FDFDFD"/>
<path fill-rule="evenodd" clip-rule="evenodd" d="M1.24404 5.5701C0.581148 5.96106 0 6.60274 0 7.35761C0 7.55535 0.114511 7.73439 0.280079 7.84879C0.991484 8.34033 1.14292 9.01193 0.84841 9.91002C0.487537 11.0112 0.63332 12.0355 1.60361 12.8666C2.23932 13.4091 2.39706 14.0586 2.22976 14.9456C1.96688 16.3354 2.17241 17.8859 2.71969 19.0732C3.08626 19.8669 3.27101 20.6872 3.45466 21.5027C3.60985 22.1918 3.76426 22.8775 4.02696 23.5407C4.23966 24.0808 4.22054 24.7839 3.92897 25.3613C3.65653 25.899 3.82143 26.2971 4.12494 26.7534C4.16459 26.813 4.20587 26.8728 4.2474 26.9329C4.57885 27.4128 4.92626 27.9158 4.58858 28.553C4.07954 29.5168 4.33047 30.4131 4.75348 31.3327C4.88021 31.6091 5.02555 31.8806 5.17102 32.1523C5.6785 33.1002 6.18748 34.0509 5.91258 35.2252C5.86 35.4463 5.96277 35.6931 6.1922 35.8258C6.72036 36.1285 6.74665 36.6174 6.76577 37.1365C6.78967 37.7674 6.88526 38.5939 7.62852 38.5892C8.21965 38.5848 8.16463 38.2081 8.10933 37.8294C8.07609 37.6018 8.04276 37.3735 8.14951 37.225C8.96853 36.0855 8.90178 34.8885 8.83138 33.6262C8.82166 33.4519 8.81188 33.2764 8.80434 33.0997C8.79801 32.9441 8.79733 32.7912 8.79666 32.6407C8.79378 31.9963 8.79112 31.3978 8.34548 30.8391C7.97027 30.3689 7.6094 29.8358 7.86273 29.2421C8.56296 27.6032 8.15907 26.0178 7.72172 24.4254C7.63569 24.1088 7.5855 23.8178 7.9153 23.5989C8.25552 23.374 8.44275 23.5857 8.61819 23.7841C8.64609 23.8157 8.6737 23.8469 8.70158 23.876C8.74384 23.9196 8.78619 23.9648 8.82894 24.0105C9.14886 24.3523 9.49079 24.7176 9.97778 24.6046C10.8502 24.4033 11.174 24.9004 11.5226 25.4355C11.5569 25.4882 11.5915 25.5413 11.6268 25.5941C11.6809 25.6748 11.7332 25.7692 11.7869 25.8663C11.9827 26.2196 12.1981 26.6084 12.5899 26.5043C14.2867 26.0527 15.0587 26.9164 15.6131 28.255C15.821 28.7579 16.17 29.1676 16.8009 28.8673C17.4318 28.567 17.6852 28.9255 17.874 29.3795C18.2339 30.2436 18.9478 30.7989 19.6622 31.3545C20.3468 31.887 21.0319 32.4199 21.4062 33.2254C21.4504 33.3208 21.5853 33.3712 21.727 33.4241C21.8306 33.4629 21.9379 33.5029 22.0156 33.563C22.0458 33.5864 22.0781 33.6107 22.1115 33.6358C22.314 33.7881 22.5544 33.9688 22.5605 34.1426C22.5984 35.1576 23.1688 35.893 23.738 36.6268C24.067 37.051 24.3956 37.4746 24.6206 37.9513C24.7497 38.2284 24.9432 38.5543 25.2969 38.5007C25.6179 38.4506 25.6465 38.1876 25.6755 37.9215C25.6815 37.8665 25.6875 37.8115 25.6961 37.7581C25.9197 36.3549 25.2796 35.2422 24.6398 34.1302C24.2267 33.412 23.8136 32.6941 23.6336 31.8984C23.6265 31.866 23.5863 31.8359 23.5553 31.8127L23.5547 31.8123C22.1088 30.6739 20.7442 29.4772 20.1444 27.673C20.087 27.5007 19.934 27.3285 19.7787 27.2237C19.0331 26.7185 18.61 25.9945 18.2133 25.2262C17.9026 24.6233 17.4223 24.1926 16.6814 24.0506C15.649 23.8527 14.8603 23.2032 14.215 22.4605C14.1185 22.3502 14.0326 22.2314 13.9469 22.1129C13.6637 21.7209 13.3825 21.3318 12.7238 21.2639C13.0028 21.0372 13.2496 20.7947 13.4885 20.56C14.1008 19.9585 14.661 19.4082 15.5773 19.306C16.0069 19.2577 16.2266 18.778 16.4047 18.3894L16.4114 18.3748C16.7148 17.7131 16.9685 17.0317 17.2222 16.3502C17.5799 15.3893 17.9378 14.4279 18.4356 13.5208C18.5742 13.2694 18.6148 12.9016 18.5527 12.6199C18.3878 11.8795 18.4308 11.1718 18.6339 10.4455C18.7104 10.1661 18.7272 9.7005 18.5575 9.55616C17.8299 8.93406 17.8697 8.16379 17.9095 7.39458C17.9167 7.25417 17.924 7.11379 17.9265 6.97436C17.9409 6.21774 17.4653 5.66134 16.8391 5.69161C16.7282 5.69678 16.6194 5.70487 16.5136 5.71272C15.763 5.7685 15.1667 5.81281 15.0515 4.72314C15.018 4.41351 14.5401 4.39721 14.2198 4.44843C13.6247 4.54388 13.1635 4.31806 12.6688 4.02007C11.9303 3.57309 11.1536 3.16102 10.3458 2.84906C9.2632 2.43234 8.23077 2.43234 7.22702 3.23785L7.15791 3.29342C6.08687 4.15497 4.96759 5.05533 3.36735 4.48102C3.18811 4.41584 2.89654 4.54621 2.69579 4.6533C2.40774 4.80635 2.13606 4.98867 1.86445 5.17094C1.65994 5.30818 1.45545 5.44541 1.24404 5.5701ZM6.31411 15.1457C7.08365 16.375 7.57119 17.681 7.2605 19.2641C7.86037 18.9195 8.43394 18.689 8.99556 19.2035C9.16046 19.3572 9.41379 19.3642 9.54046 19.2245C10.267 18.4329 11.2421 18.1443 12.2386 17.8579C12.5517 17.7671 12.664 17.4226 12.6903 17.0943C12.762 16.2166 13.0631 15.453 13.7514 14.8384C14.0478 14.5754 14.2079 11.7561 13.8972 11.5955C13.4617 11.3698 13.2733 10.8889 13.0856 10.4095C12.7892 9.65264 12.4943 8.89951 11.2301 9.16034C11.196 9.16864 11.1486 9.12019 11.1026 9.07312C11.084 9.05414 11.0656 9.03538 11.0485 9.02066C9.59064 7.74256 8.845 7.70997 7.15774 8.84373C6.72039 9.13706 6.26631 9.2814 5.70469 9.16034C4.75351 8.9578 4.60056 9.54447 4.95904 10.1567C5.2342 10.6261 5.29938 11.1591 5.36449 11.6917C5.45376 12.422 5.54292 13.1513 6.17311 13.714C6.26743 13.7993 6.23355 14.0223 6.2003 14.241C6.18637 14.3326 6.17256 14.4235 6.16833 14.5032C6.15638 14.7314 6.1755 14.9223 6.31411 15.1457Z" fill="#FDFDFD"/>
<path fill-rule="evenodd" clip-rule="evenodd" d="M62.7154 25.7733C63.7072 27.1608 65.459 27.7708 66.6085 26.4834C66.6407 26.5694 66.6687 26.6551 66.6961 26.739C66.7562 26.923 66.8137 27.0989 66.9073 27.254L66.9303 27.293C67.2008 27.7531 67.4932 28.2503 68.1811 28.0036C68.8526 27.7615 68.8598 27.2144 68.7116 26.6463C68.7015 26.6065 68.6914 26.5666 68.6814 26.5267C68.6062 26.2279 68.5304 25.9269 68.4081 25.6476C67.6075 23.8084 67.7031 21.96 68.2982 20.0952C68.3232 20.0159 68.3547 19.9302 68.387 19.8422C68.5025 19.5274 68.6291 19.1828 68.5133 18.9917C67.992 18.131 68.2241 17.3417 68.4633 16.528C68.4939 16.424 68.5246 16.3195 68.5539 16.2144C68.6758 15.7767 68.812 15.2249 68.1859 15.0364C67.6099 14.8618 67.2825 15.3018 67.1295 15.7488C66.9891 16.1569 66.8796 16.575 66.7703 16.9928C66.6544 17.4353 66.5387 17.8774 66.3863 18.3073C66.2735 18.6262 66.1923 18.962 66.1112 19.2979C65.9276 20.0576 65.7439 20.8176 65.1937 21.3826C64.9149 21.6699 64.602 21.9313 64.2665 22.2116C63.8543 22.556 63.4082 22.9288 62.9496 23.4127C63.0376 22.9424 63.1226 22.4961 63.2043 22.0668C63.411 20.9806 63.5971 20.0031 63.7598 19.022C63.8339 18.5703 63.8745 18.0209 63.277 17.8533C62.6708 17.6846 62.4772 18.1568 62.2988 18.5919L62.2876 18.6192C62.0327 19.2346 61.7748 19.8499 61.5198 20.4586L61.513 20.4748C61.4451 20.6367 61.3775 20.7981 61.3102 20.9589C60.4235 20.4933 59.6468 19.9974 59.556 18.8893C59.5273 18.5471 59.2238 18.1583 58.7076 18.2724C58.295 18.3646 58.2792 18.6719 58.2633 18.9809L58.2633 18.9813C58.2612 19.0229 58.259 19.0647 58.2559 19.1058C58.2424 19.2859 58.2233 19.4658 58.2041 19.6455C58.1454 20.1976 58.0868 20.7491 58.1914 21.3058C58.2989 21.8808 58.1053 22.3534 57.656 22.7399C57.3171 22.4805 57.2523 22.1232 57.1887 21.7716L57.1886 21.7713C57.1769 21.7066 57.1651 21.6419 57.1518 21.5782C57.095 21.3111 57.0365 21.0443 56.978 20.7776C56.6965 19.4937 56.4151 18.2107 56.332 16.8942L56.3303 16.8669C56.3094 16.5408 56.2838 16.1404 55.8421 16.0747C55.4382 16.0142 55.1705 16.2958 55.0104 16.6218C54.9099 16.8272 54.8312 17.0424 54.7525 17.2577C54.6983 17.406 54.644 17.5544 54.5826 17.6997C54.5561 17.7633 54.5404 17.8323 54.5247 17.9013C54.4826 18.0871 54.4403 18.273 54.1859 18.3562C52.8643 18.7915 52.6731 19.9439 52.8117 20.9799C52.9503 22.0112 52.8332 22.9657 52.3098 23.7456C51.6828 24.679 51.8462 25.5733 52.0124 26.4824L52.0124 26.4826C52.0489 26.6821 52.0855 26.8825 52.1139 27.084C52.1545 27.368 52.317 27.6032 52.6301 27.6427C52.9103 27.6784 53.0025 27.4926 53.0958 27.3043C53.1243 27.2469 53.1529 27.1892 53.1869 27.1376C53.5033 26.6619 53.6381 26.1255 53.773 25.5888C53.8856 25.1405 53.9983 24.692 54.217 24.2787C54.2657 24.1877 54.2988 24.0811 54.3317 23.9748C54.4168 23.7003 54.5013 23.4279 54.8527 23.4313C55.2924 23.436 55.4932 23.8666 55.5912 24.2484C55.8349 25.1913 56.2077 26.0829 56.6451 26.9513C56.7933 27.2446 56.9701 27.517 57.3621 27.4099C57.7253 27.3098 57.8066 27.0142 57.8042 26.6789C57.7991 26.1575 57.8 25.6361 57.801 25.089C57.8014 24.8642 57.8018 24.635 57.8018 24.3998C58.1357 24.5856 58.1159 24.7956 58.0984 24.9815C58.0948 25.0192 58.0914 25.0559 58.091 25.0912C58.0838 25.6686 58.3778 26.2156 58.8916 26.2133C59.4198 26.211 59.6564 25.6266 59.6874 25.0772C59.6904 25.0255 59.6938 24.9739 59.6971 24.9221C59.7359 24.3183 59.7756 23.6992 59.3552 22.8865C60.3013 23.5272 60.6952 24.3163 61.0678 25.0627L61.068 25.063L61.0681 25.0633C61.1802 25.2877 61.2903 25.5083 61.4129 25.7198C61.8431 26.4578 62.2422 26.6231 62.7154 25.7733ZM65.6933 24.8444C66.2501 24.3951 66.3481 23.8178 66.1282 23.1217C66.0088 23.1935 65.8826 23.256 65.7573 23.3179C65.3187 23.5349 64.8929 23.7455 64.8186 24.3323C64.8108 24.3934 64.7979 24.4576 64.7847 24.5227C64.7334 24.7776 64.6792 25.0468 64.9189 25.2006C65.1866 25.3726 65.3655 25.1812 65.5348 25C65.5878 24.9433 65.6398 24.8877 65.6933 24.8444ZM55.1742 20.202C55.2279 20.4824 55.2768 20.7374 55.3426 20.9892C55.3527 21.0273 55.3671 21.0667 55.3816 21.106C55.4359 21.2538 55.4899 21.4008 55.3068 21.4781C55.1084 21.5619 54.8431 21.5642 54.6256 21.5176C54.3843 21.4664 54.3699 21.2243 54.4703 21.0544C54.5502 20.9194 54.5853 20.7642 54.6213 20.6053C54.6866 20.3173 54.7545 20.0173 55.0965 19.8042C55.1247 19.9433 55.15 20.0753 55.1742 20.202Z" fill="#FDFDFD"/>
<path fill-rule="evenodd" clip-rule="evenodd" d="M107.751 25.1281C107.91 24.5712 108.078 23.9803 108.15 23.2986C108.23 23.3794 108.31 23.4594 108.39 23.5388C109.545 24.6939 110.565 25.7129 110.838 27.1375C110.994 27.9571 111.206 28.7559 111.417 29.5549C111.451 29.6842 111.485 29.8134 111.519 29.9428C111.684 30.5691 112.031 31.2023 112.838 30.9183C113.593 30.6512 113.355 30.0327 113.155 29.513L113.144 29.4843C113.137 29.4655 113.13 29.4468 113.123 29.4283C113.094 29.3515 113.064 29.275 113.035 29.1987L113.035 29.1983C112.786 28.5505 112.54 27.9134 112.626 27.1888C112.769 25.9757 112.302 24.9241 111.835 23.8718C111.56 23.252 111.285 22.6319 111.134 21.9786C111.075 21.7219 110.829 21.5466 110.596 21.38C110.285 21.1582 109.996 20.9516 110.195 20.5887C110.385 20.2427 110.838 20.0316 111.291 19.8209C111.487 19.7297 111.682 19.6385 111.856 19.5365C111.923 19.4961 111.999 19.4703 112.074 19.4444C112.112 19.4315 112.149 19.4185 112.186 19.4038C113.833 18.7473 114.213 17.56 113.242 16.0863C113.225 16.0602 113.208 16.0343 113.191 16.0085C112.871 15.5236 112.582 15.0859 112.748 14.3985C112.908 13.742 112.274 13.4905 111.687 13.4137C111.548 13.3961 111.394 13.4117 111.243 13.427C111.015 13.4502 110.793 13.4727 110.637 13.3788C109.493 12.6897 108.886 13.3299 108.288 14.1447C108.248 14.1993 108.211 14.2567 108.173 14.3149C108.021 14.5472 107.862 14.7915 107.523 14.9106C107.327 14.5834 107.305 14.2255 107.283 13.8701C107.269 13.6541 107.256 13.4389 107.203 13.2321C107.191 13.1836 107.18 13.1328 107.169 13.0812C107.097 12.7486 107.019 12.3835 106.553 12.4057C106.042 12.4289 105.994 12.8596 105.968 13.2647C105.848 15.1178 105.662 16.964 105.372 18.8031C105.296 19.2897 105.21 19.8647 105.74 20.179C106.398 20.5701 106.252 21.0311 106.023 21.5689C105.903 21.8482 105.755 22.1974 105.831 22.4558C106.111 23.3909 106.043 24.3279 105.974 25.2637C105.936 25.7818 105.898 26.2995 105.92 26.8163C105.939 27.3145 105.984 27.801 106.613 27.8429C107.172 27.8802 107.406 27.4169 107.404 26.9979C107.399 26.3621 107.568 25.7675 107.751 25.1281ZM109.918 17.7834C109.87 17.2643 109.885 16.7661 110.236 16.3028C109.537 16.1229 109.331 16.4875 109.133 16.8384C109.034 17.0142 108.937 17.1865 108.78 17.2852C108.443 17.5017 108.178 17.7345 108.575 18.0628C108.667 18.1396 108.735 18.2587 108.801 18.3767C108.932 18.6089 109.06 18.8367 109.375 18.7286C109.724 18.6076 109.959 18.2001 109.918 17.7834Z" fill="#FDFDFD"/>
<path fill-rule="evenodd" clip-rule="evenodd" d="M96.059 23.9784C96.1737 23.2544 96.0949 22.4721 95.5906 21.7505C95.2656 21.2872 95.3205 20.7773 95.6265 20.3303C95.8204 20.047 95.9381 19.7275 96.0533 19.4147C96.1511 19.1492 96.2471 18.8885 96.3864 18.6588C97.2731 17.2061 98.4609 15.9327 99.9402 15.0527C100.951 14.452 102.83 15.2063 103.401 16.382C103.967 17.5507 104.538 18.8101 103.783 20.1325C103.406 20.796 103.508 21.3198 103.967 21.9274C104.882 23.1403 104.804 23.727 103.876 24.9422C102.877 26.2506 101.761 27.3331 99.945 27.4169L99.9321 27.4175C99.4735 27.4383 99.0559 27.4572 98.7931 27.0305C98.5196 26.5885 98.0558 26.409 97.6196 26.2401C97.5526 26.2142 97.4861 26.1884 97.4213 26.1621L97.3203 26.1207C95.9795 25.5715 95.968 25.5668 96.059 23.9784ZM99.3811 18.6146C99.5269 19.5365 99.7706 20.2814 100.633 20.7191C100.939 20.8728 100.789 21.194 100.667 21.4431C100.359 22.074 100.337 22.6979 100.674 23.3288C100.782 23.5291 100.913 23.7805 100.643 23.9365C100.404 24.0715 100.088 24.1437 99.8806 23.8922C99.4671 23.3917 99.0584 22.9354 98.4657 22.5769C98.0953 22.3511 98.0141 21.5991 98.2602 21.1684C98.3583 20.9963 98.4636 20.828 98.569 20.6596C98.9539 20.0446 99.3398 19.4278 99.3811 18.6146Z" fill="#FDFDFD"/>
</g>
<defs>
<clipPath id="clip0_1_1053">
<rect width="140" height="40" fill="white"/>
</clipPath>
</defs>
</svg>
